<svg width="91" height="91" viewBox="0 0 91 91" fill="none" xmlns="http://www.w3.org/2000/svg">
<rect width="90.5455" height="90.5455" rx="45.2727" fill="#C4FF61"/>
<path fill-rule="evenodd" clip-rule="evenodd" d="M37.9843 47.6354V27.8545L28.2725 28.7109V48.4918V68.2727L57.4081 65.7034V55.8129L47.6962 56.6694V46.7789L57.4081 45.9225V36.0321L52.5437 36.461V26.5706L43.017 27.4107V32.3645L47.6794 31.9533V46.7804L42.815 47.2094V57.0998L37.9843 57.5258V47.6354ZM57.4081 36.0321L62.2725 35.6031V25.7126L57.4081 26.1416V36.0321Z" fill="black" fill-opacity="0.5"/>
<path fill-rule="evenodd" clip-rule="evenodd" d="M37.9843 44.1959V24.415L28.2725 25.2715V45.0524V64.8333L57.4081 62.2639V52.3735L47.6962 53.2299V43.3395L57.4081 42.483V32.5926L52.5437 33.0216V23.1311L43.017 23.9712V28.925L47.6794 28.5139V43.341L42.815 43.7699V53.6604L37.9843 54.0864V44.1959ZM57.4081 32.5926L62.2725 32.1636V22.2732L57.4081 22.7022V32.5926Z" fill="black"/>
</svg>
