<svg width="340" height="82" viewBox="0 0 340 82" fill="none" xmlns="http://www.w3.org/2000/svg">
<path d="M51.7444 40.7774C54.3942 36.8028 55.7191 32.3128 55.7191 27.4549C55.7191 23.0386 54.615 18.9903 52.4805 15.2364C50.2723 11.4825 47.3281 8.53836 43.5743 6.3302C39.8204 4.19565 35.6985 3.09155 31.3558 3.09155H0V13.3963H31.3558C35.2569 13.3963 38.5691 14.7948 41.3661 17.5182C44.0895 20.2416 45.488 23.5538 45.488 27.5285C45.488 31.5032 44.0895 34.7418 41.3661 37.5388C38.6427 40.2622 35.3305 41.6607 31.3558 41.6607H0V77.6537H10.3047V51.9654H31.3558C31.4294 51.9654 31.5766 51.9654 31.7238 51.9654C31.871 51.9654 32.0182 51.9654 32.0919 51.9654L45.488 77.7273H55.7927L41.2925 49.8309C45.6352 47.7699 49.0946 44.8257 51.7444 40.7774Z" fill="white"/>
<path d="M66.7595 35.257V45.5618H119.24V35.257H66.7595ZM66.7595 67.6433L61.3862 77.7273H119.314V67.6433H66.7595ZM61.3862 3.09155L66.7595 13.3963H119.24V3.09155H61.3862Z" fill="white"/>
<path d="M182.173 3.09141V56.8968L126.969 0V77.8007H137.274V24.7314L192.477 81.1866V3.09141H182.173Z" fill="white"/>
<path d="M221.109 50.1989L239.436 39.3789C244.147 36.582 247.901 32.8281 250.624 28.0437C253.348 23.2594 254.673 18.107 254.673 12.5866V3.09155H201.088V13.3963H244.442V13.5435C244.442 17.0766 243.558 20.3888 241.792 23.4802C240.025 26.5716 237.596 29.0006 234.579 30.7671L216.472 41.4399C211.687 44.2369 208.007 47.9907 205.21 52.7751C202.487 57.5594 201.088 62.7118 201.088 68.2322V77.6537H254.673V67.3489H211.319C211.319 63.8159 212.203 60.5037 213.969 57.4858C215.662 54.3944 218.091 51.9654 221.109 50.1989Z" fill="white"/>
<path d="M339.097 43.7208C339.097 43.7944 339.097 43.868 339.097 43.9416C337.404 62.3429 322.83 76.6224 305.018 78.5361C304.871 78.5361 304.797 78.5361 304.65 78.5361L339.097 43.7208Z" fill="white"/>
<path d="M317.677 5.74055C316.72 5.29892 315.763 4.85729 314.733 4.41566C312.746 3.67961 310.758 3.01717 308.624 2.64914C306.121 2.1339 303.471 1.83948 300.822 1.83948C299.57 1.83948 298.245 1.91307 296.994 2.06028C288.162 2.94355 280.212 6.77102 274.103 12.6594C273.661 13.0275 273.293 13.4691 272.925 13.8371C267.11 19.9464 263.357 27.9693 262.547 36.802C262.473 37.906 262.4 39.0837 262.4 40.2614C262.4 43.132 262.694 45.929 263.283 48.6524C263.725 50.7134 264.313 52.7007 265.123 54.5408C265.565 55.5713 266.006 56.6018 266.522 57.6322C267.405 59.3988 268.435 61.0181 269.539 62.6374L275.869 56.2337L316.573 15.162L322.903 8.75837C321.21 7.58068 319.517 6.62381 317.677 5.74055ZM272.116 47.5483C272.042 47.2539 271.968 47.0331 271.895 46.7387C271.453 44.6777 271.159 42.4696 271.159 40.2614C271.159 32.6801 274.029 25.4668 279.182 19.9464L280.212 18.8423C285.733 13.5427 293.019 10.5985 300.748 10.5985C302.809 10.5985 304.796 10.8193 306.784 11.1873C307.078 11.2609 307.373 11.3346 307.667 11.4082L272.116 47.5483Z" fill="white"/>
<path d="M287.573 76.3278C286.616 75.9598 285.659 75.5918 284.776 75.1502C282.862 74.2669 281.095 73.2364 279.329 72.0587L332.472 18.4005C333.649 20.0934 334.606 21.7864 335.49 23.6265C335.931 24.5834 336.373 25.5402 336.741 26.5707L287.573 76.3278Z" fill="white"/>
</svg>
