<svg width="340" height="82" viewBox="0 0 340 82" fill="none" xmlns="http://www.w3.org/2000/svg">
<path d="M51.7444 40.7776C54.3942 36.8029 55.7191 32.313 55.7191 27.455C55.7191 23.0387 54.615 18.9904 52.4805 15.2365C50.2723 11.4827 47.3281 8.53848 43.5743 6.33032C39.8204 4.19577 35.6985 3.09167 31.3558 3.09167H0V13.3964H31.3558C35.2569 13.3964 38.5691 14.7949 41.3661 17.5183C44.0895 20.2417 45.488 23.5539 45.488 27.5286C45.488 31.5033 44.0895 34.7419 41.3661 37.5389C38.6427 40.2623 35.3305 41.6608 31.3558 41.6608H0V77.6538H10.3047V51.9656H31.3558C31.4294 51.9656 31.5766 51.9656 31.7238 51.9656C31.871 51.9656 32.0182 51.9656 32.0919 51.9656L45.488 77.7274H55.7927L41.2925 49.831C45.6352 47.7701 49.0946 44.8259 51.7444 40.7776Z" fill="#000A41"/>
<path d="M66.7593 35.2572V45.5619H119.24V35.2572H66.7593ZM66.7593 67.6435L61.3861 77.7274H119.313V67.6435H66.7593ZM61.3861 3.09167L66.7593 13.3964H119.24V3.09167H61.3861Z" fill="#000A41"/>
<path d="M182.173 3.09141V56.8968L126.969 0V77.8007H137.274V24.7314L192.477 81.1866V3.09141H182.173Z" fill="#000A41"/>
<path d="M221.109 50.199L239.436 39.3791C244.147 36.5821 247.901 32.8282 250.624 28.0439C253.348 23.2595 254.673 18.1072 254.673 12.5868V3.09167H201.088V13.3964H244.441V13.5436C244.441 17.0767 243.558 20.3889 241.792 23.4803C240.025 26.5718 237.596 29.0007 234.578 30.7673L216.471 41.44C211.687 44.237 208.007 47.9909 205.21 52.7752C202.486 57.5596 201.088 62.7119 201.088 68.2323V77.6538H254.673V67.3491H211.319C211.319 63.816 212.202 60.5038 213.969 57.486C215.662 54.3945 218.091 51.9656 221.109 50.199Z" fill="#000A41"/>
<path d="M339.098 43.7209C339.098 43.7946 339.098 43.8681 339.098 43.9418C337.405 62.3431 322.831 76.6225 305.019 78.5362C304.872 78.5362 304.798 78.5362 304.651 78.5362L339.098 43.7209Z" fill="#000A41"/>
<path d="M317.679 5.74067C316.722 5.29904 315.765 4.85741 314.735 4.41578C312.747 3.67973 310.76 3.01729 308.625 2.64926C306.123 2.13403 303.473 1.8396 300.823 1.8396C299.572 1.8396 298.247 1.9132 296.996 2.06041C288.163 2.94367 280.214 6.77114 274.105 12.6596C273.663 13.0276 273.295 13.4692 272.927 13.8372C267.112 19.9465 263.358 27.9695 262.549 36.8021C262.475 37.9062 262.401 39.0838 262.401 40.2615C262.401 43.1321 262.696 45.9291 263.285 48.6525C263.726 50.7135 264.315 52.7008 265.125 54.541C265.566 55.5714 266.008 56.6019 266.523 57.6324C267.407 59.3989 268.437 61.0182 269.541 62.6375L275.871 56.2339L316.575 15.1622L322.905 8.75849C321.212 7.5808 319.519 6.62393 317.679 5.74067ZM272.117 47.5485C272.044 47.254 271.97 47.0332 271.896 46.7388C271.455 44.6779 271.16 42.4697 271.16 40.2615C271.16 32.6802 274.031 25.4669 279.183 19.9465L280.214 18.8424C285.734 13.5428 293.021 10.5986 300.75 10.5986C302.811 10.5986 304.798 10.8194 306.785 11.1875C307.08 11.2611 307.374 11.3347 307.669 11.4083L272.117 47.5485Z" fill="#000A41"/>
<path d="M287.574 76.3284C286.617 75.9604 285.66 75.5924 284.777 75.1508C282.863 74.2675 281.096 73.237 279.33 72.0593L332.473 18.4011C333.651 20.094 334.607 21.787 335.491 23.6271C335.932 24.584 336.374 25.5408 336.742 26.5713L287.574 76.3284Z" fill="#000A41"/>
</svg>
